<mxfile host="app.diagrams.net" modified="2024-05-12T15:31:48.651Z" agent="Mozilla/5.0 (Macintosh; Intel Mac OS X 10_15_7) AppleWebKit/537.36 (KHTML, like Gecko) Chrome/124.0.0.0 Safari/537.36" etag="25jmfL8Jsjst7MnhpO4E" version="24.2.0" type="device">
  <diagram name="Страница — 1" id="OdiSemQOuYoiwxVy_jD-">
    <mxGraphModel dx="954" dy="531" grid="1" gridSize="10" guides="1" tooltips="1" connect="1" arrows="1" fold="1" page="1" pageScale="1" pageWidth="827" pageHeight="1169" math="0" shadow="0">
      <root>
        <mxCell id="0" />
        <mxCell id="1" parent="0" />
        <mxCell id="pN2kxtBITsLVpttk-Yg4-1" value="" style="shape=image;verticalLabelPosition=bottom;labelBackgroundColor=default;verticalAlign=top;aspect=fixed;imageAspect=0;image=https://github.com/linarMinachev/Final_test_work_1/blob/master/Block_diagram.drawio.png?raw=true;" vertex="1" parent="1">
          <mxGeometry x="140" y="10" width="405" height="1101" as="geometry" />
        </mxCell>
      </root>
    </mxGraphModel>
  </diagram>
</mxfile>
